<svg xmlns="http://www.w3.org/2000/svg" xmlns:xlink="http://www.w3.org/1999/xlink" viewBox="0 0 446.62 560.13"><defs><style>.cls-1{fill:#f9eede;}.cls-2{fill:#fff;}.cls-3{fill:#e08d92;}.cls-4{fill:#666565;}.cls-5{fill:#e8a6a9;}.cls-6{clip-path:url(#clip-path);}.cls-10,.cls-11,.cls-12,.cls-14,.cls-7{fill:none;}.cls-10,.cls-7{stroke:#000;stroke-linecap:round;}.cls-11,.cls-12,.cls-7{stroke-miterlimit:10;}.cls-8{fill:#e26471;}.cls-9{clip-path:url(#clip-path-2);}.cls-10{stroke-linejoin:round;}.cls-11{stroke:#565353;}.cls-11,.cls-12{stroke-width:20px;}.cls-12{stroke:#ffd15c;}.cls-13{fill:#ffd15c;}</style><clipPath id="clip-path"><path class="cls-1" d="M223.5,371.84H342.79a238.55,238.55,0,0,1,1.59-53c5.06-35.14,14.86-44.77,21.4-75,9-41.37,2.51-78.38-1.19-94.5-3.53-15.4-12.56-54.83-42-83-15.36-14.69-31.5-21.26-46.37-25.5-26.62-7.58-47.56-6-53.11-6h-.79c-5.55,0-26.49-1.58-53.11,6-14.88,4.24-31,10.81-46.37,25.5-29.45,28.17-38.48,67.6-42,83-3.69,16.12-10.13,53.13-1.18,94.5,6.54,30.23,16.33,39.86,21.4,75a238.43,238.43,0,0,1,1.58,53h119.3"/></clipPath><clipPath id="clip-path-2"><path class="cls-2" d="M152.55,215.12c-10.12,10.25-24.49,13-36.19,7-13.78-7-17.26-22.8-17.66-24.76l0-.08c1.31-1.4,12-12.49,27.08-10.08,12.77,2.05,23.44,13,26.81,27.68Z"/></clipPath></defs><title>@1Fichier 24x</title><g id="Calque_2" data-name="Calque 2"><g id="Mouth"><path class="cls-3" d="M335.08,424.34c7.16,52.09-15.4,75.25-106.77,75.25h0c-91.37,0-113.93-23.16-106.77-75.25Z"/></g><g id="Hears"><path class="cls-4" d="M318.79,121.57c-7.31-17.78,16.09-48.2,36.94-63.42,30.81-22.49,78.14-27.93,88.6-8.41,9.41,17.56-11.5,54.47-37.4,72.18C374.91,143.82,327.15,141.9,318.79,121.57Z"/><path class="cls-5" d="M321.84,118.41c-4.3-10.45,9.47-28.35,21.73-37.3,18.12-13.23,46-16.42,52.11-5,5.53,10.33-6.76,32-22,42.46C354.85,131.5,326.76,130.37,321.84,118.41Z"/><path class="cls-4" d="M127.83,121.57c7.32-17.78-16.09-48.2-36.94-63.42C60.08,35.66,12.75,30.22,2.3,49.74c-9.41,17.56,11.49,54.47,37.39,72.18C71.71,143.82,119.47,141.9,127.83,121.57Z"/><path class="cls-5" d="M124.78,118.41c4.3-10.45-9.47-28.35-21.73-37.3-18.12-13.23-46-16.42-52.11-5-5.53,10.33,6.76,32,22,42.46C91.77,131.5,119.86,130.37,124.78,118.41Z"/></g><g id="Head"><path class="cls-1" d="M223.5,371.84H342.79a238.55,238.55,0,0,1,1.59-53c5.06-35.14,14.86-44.77,21.4-75,9-41.37,2.51-78.38-1.19-94.5-3.53-15.4-12.56-54.83-42-83-15.36-14.69-31.5-21.26-46.37-25.5-26.62-7.58-47.56-6-53.11-6h-.79c-5.55,0-26.49-1.58-53.11,6-14.88,4.24-31,10.81-46.37,25.5-29.45,28.17-38.48,67.6-42,83-3.69,16.12-10.13,53.13-1.18,94.5,6.54,30.23,16.33,39.86,21.4,75a238.43,238.43,0,0,1,1.58,53h119.3"/><g class="cls-6"><path class="cls-4" d="M95.09,50.34c43.3,19.31,79.74,24,64.93,94.78-9.48,45.27,25.47,54.58,23.28,93.22-3.22,57-115,66.81-127,68"/><path class="cls-4" d="M350.53,50.34c-43.3,19.31-79.74,24-64.92,94.78,9.47,45.27-25.48,54.58-23.29,93.22,3.23,57,115,66.81,127,68"/></g><line class="cls-7" x1="302.6" y1="221.43" x2="300.28" y2="228.26"/><line class="cls-7" x1="307.06" y1="222.29" x2="305.81" y2="229.4"/><line class="cls-7" x1="311.93" y1="223.27" x2="310.95" y2="230.42"/><line class="cls-7" x1="316.4" y1="223.24" x2="316.47" y2="230.45"/><line class="cls-7" x1="320.81" y1="222.29" x2="322.06" y2="229.4"/><line class="cls-7" x1="325.47" y1="221.37" x2="327.4" y2="228.32"/><line class="cls-7" x1="329.94" y1="219.56" x2="332.94" y2="226.13"/><line class="cls-7" x1="334.16" y1="217.05" x2="338.72" y2="222.64"/><line class="cls-7" x1="338.61" y1="213.61" x2="344.27" y2="218.08"/></g><g id="Nose"><path class="cls-5" d="M223.38,454.61s88,3.6,115.88-16.21c24.25-17.22,24.78-65.08,24.5-77.28A36.51,36.51,0,0,1,364,356c.75-6.15,1.3-23.06-14.29-27.46-19.17-5.4-126.34,1.8-126.34,1.8h.87s-107.18-7.2-126.35-1.8c-15.59,4.4-15,21.31-14.29,27.46a35.06,35.06,0,0,1,.25,5.12c-.27,12.2.26,60.06,24.5,77.28,27.88,19.81,115.89,16.21,115.89,16.21"/><ellipse class="cls-8" cx="157.81" cy="390.84" rx="23.5" ry="40.5" transform="translate(-110.25 65.56) rotate(-17.5)"/><ellipse class="cls-8" cx="287.81" cy="390.84" rx="40.5" ry="23.5" transform="translate(-171.5 547.77) rotate(-72.5)"/></g><g id="Eyes"><path d="M331.81,177.84c-4.37-.42-17.49-.9-28,9-12.28,11.59-10.71,26.67-10.5,28.5,3.79-15.56,16.05-25.76,30-27,11.78-1,19.93,5.38,23,8.12a7.23,7.23,0,0,0,2.82,1.55,19.43,19.43,0,0,0,12.15-.67c8-3,8-7,8-7s-1,2-9,1-10-5-14-8S331.81,177.84,331.81,177.84Z"/><path class="cls-2" d="M152.55,215.12c-10.12,10.25-24.49,13-36.19,7-13.78-7-17.26-22.8-17.66-24.76l0-.08c1.31-1.4,12-12.49,27.08-10.08,12.77,2.05,23.44,13,26.81,27.68Z"/><g class="cls-9"><circle cx="127.31" cy="202.34" r="18"/></g><path d="M113.81,177.84c4.37-.42,17.5-.9,28,9,12.28,11.59,10.71,26.67,10.5,28.5-3.79-15.56-16.05-25.76-30-27-11.78-1-19.93,5.38-23,8.12A7.34,7.34,0,0,1,96.46,198a19.43,19.43,0,0,1-12.15-.67c-8-3-8-7-8-7s1,2,9,1,10-5,14-8S113.81,177.84,113.81,177.84Z"/><path class="cls-10" d="M296.31,218.34c2,1.09,15.63,8,31,2a37.4,37.4,0,0,0,19-17"/><path class="cls-10" d="M301.81,214.84a32.45,32.45,0,0,0,36-9"/></g><g id="Wheel"><path class="cls-11" d="M260.43,386.34c27,10.14,46.19,35.9,51.1,64,5.13,29.31-6.48,60.4-28.94,79.79C258.32,551,222.77,555.91,193.53,543c-27.56-12.14-47.79-39.21-51.16-69.2-3.31-29.48,10.68-60.7,34.7-78.08q2.58-1.87,5.33-3.51"/><path class="cls-12" d="M263.05,387.45c26.65,11,45,37.37,49,65.56,4.18,29.46-8.42,60.16-31.5,78.82C255.64,552,220,555.72,191.14,541.9c-27.15-13-46.5-40.72-48.9-70.8-2.37-29.58,12.63-60.33,37.19-76.93,1.76-1.19,3.57-2.31,5.44-3.34"/><circle class="cls-13" cx="227.31" cy="464.89" r="18.51"/><circle class="cls-14" cx="227.74" cy="465.32" r="9.47"/><path class="cls-13" d="M215.88,454.29l-61-31.92s-3,5.73-3,5.76l-2.73,5.23,7.73,4,53.28,27.88Z"/><rect class="cls-13" x="238.56" y="437.62" width="68.86" height="12.41" transform="translate(720.62 710.51) rotate(152.38)"/><rect class="cls-13" x="192.94" y="508.2" width="68.86" height="12.41" transform="translate(741.77 287.04) rotate(90)"/><path class="cls-5" d="M190.31,401.34a17.91,17.91,0,0,0-5.05,2.42,19,19,0,0,0-1.95,1.58c0-.73.06-1.47.07-2.23a57.82,57.82,0,0,0-1.07-11.77,8,8,0,0,1,6,2A7.88,7.88,0,0,1,190.31,401.34Z"/><path class="cls-5" d="M262.31,401.34l-8-4q4-12.42,8-24.86l6,3.86a76.38,76.38,0,0,0-6,25Z"/><path class="cls-5" d="M192.38,391.37a26.72,26.72,0,0,0-2.4,1.51,28.55,28.55,0,0,0-3.92,3.49c-.72.72-1.67,1.72-2.75,3a60.78,60.78,0,0,0-1-8,62.63,62.63,0,0,0-3.22-11.13,5.83,5.83,0,0,1,1.38-.28C186.7,379.47,191.67,389.84,192.38,391.37Z"/><path class="cls-13" d="M160.31,48.34c-1-9-7.09-9.45-12-20-6.25-13.4-1.27-22.95-8-27-3.51-2.1-8.09-1.45-11,0-5.74,2.87-7.17,9.91-8,14-2.73,13.48,1.58,30.63,14,41,2,1.68,13.07,10.92,20,7C160,60.71,160.87,53.2,160.31,48.34Z"/><path class="cls-13" d="M291.31,48.34c1-9,7.09-9.45,12-20,6.25-13.4,1.27-22.95,8-27,3.51-2.1,8.09-1.45,11,0,5.75,2.87,7.17,9.91,8,14,2.73,13.48-1.58,30.63-14,41-2,1.68-13.07,10.92-20,7C291.65,60.71,290.75,53.2,291.31,48.34Z"/></g></g></svg>